Genre:Action | Thriller
Language:English
 
http://www.imdb.com/title/tt1436568/

Source:PPVRip Thanks!

Format : MPEG-4
Format profile : Base Media
Codec ID : isom
File size : 1.21 GiB
Duration : 1h 40mn
Overall bit rate : 1 725 Kbps

Video
ID : 1
Format : AVC
Format/Info : Advanced Video Codec
Format profile : High@L4.1
Format settings, CABAC : Yes
Format settings, ReFrames : 3 frames
Codec ID : avc1
Codec ID/Info : Advanced Video Coding
Duration : 1h 40mn
Bit rate mode : Variable
Bit rate : 1 500 Kbps
Maximum bit rate : 7 428 Kbps
Width : 640 pixels
Height : 472 pixels
Display aspect ratio : 4:3
Frame rate mode : Constant
Frame rate : 23.976 fps
Color space : YUV
Chroma subsampling : 4:2:0
Bit depth : 8 bits
Scan type : Progressive
Bits/(Pixel*Frame) : 0.207
Stream size : 1.05 GiB (87%)
Writing library : x264

Audio
ID : 2
Format : AAC
Format/Info : Advanced Audio Codec
Format version : Version 4
Format profile : LC
Format settings, SBR : No
Codec ID : 40
Duration : 1h 40mn
Bit rate mode : Variable
Bit rate : 224 Kbps
Maximum bit rate : 280 Kbps
Channel(s) : 2 channels
Channel positions : Front: L R
Sampling rate : 48.0 KHz
Stream size : 160 MiB (13%)


Plot:
Rival assassins -- each of whom are masters of their respective weapons -- form an uneasy alliance in their mission to take down a DEA-backed drug cartel
 
http://www.pix2links.com/images/94311226988162444195.png
 
http://www.pix2links.com/images/75014526109906428235.png
 
http://www.pix2links.com/images/45485206311191492795.png
 
http://www.pix2links.com/images/56123496460479487252.png
